<svg id="svg" xmlns="http://www.w3.org/2000/svg" xmlns:xlink="http://www.w3.org/1999/xlink" width="400" height="266.5" viewBox="0, 0, 400,266.5"><g id="fr-buldog"><path id="path0" d="M316.647 4.625 C 316.385 4.969,315.657 6.487,315.028 8.000 C 314.400 9.512,313.167 11.650,312.289 12.750 C 311.410 13.850,310.204 15.537,309.607 16.500 C 309.011 17.462,307.937 18.797,307.222 19.465 C 302.134 24.219,295.578 34.542,293.227 41.500 C 291.887 45.466,291.359 46.415,290.024 47.250 C 285.676 49.970,281.730 52.714,280.555 53.834 C 278.135 56.142,273.528 59.025,267.873 61.769 C 256.571 67.254,250.012 71.437,244.000 76.993 C 240.268 80.442,240.191 80.456,232.206 79.253 C 225.866 78.297,222.182 78.303,219.438 79.274 C 214.548 81.003,205.443 83.071,200.538 83.566 C 192.673 84.359,164.349 83.872,159.000 82.851 C 146.676 80.498,124.265 79.540,120.300 81.197 C 118.987 81.746,116.601 81.837,109.095 81.624 C 95.439 81.238,94.870 81.625,94.639 91.445 L 94.505 97.141 92.628 99.379 C 79.847 114.617,77.358 119.680,74.747 135.750 C 73.116 145.787,72.795 146.434,63.849 157.750 L 59.897 162.750 53.146 165.337 C 49.433 166.760,45.912 168.348,45.322 168.867 C 44.733 169.385,43.627 170.074,42.865 170.398 C 40.976 171.202,40.449 172.821,39.985 179.250 C 39.766 182.275,39.230 187.000,38.795 189.750 C 35.915 207.922,35.233 223.405,37.250 224.819 C 37.800 225.204,40.176 226.924,42.529 228.641 C 50.094 234.158,54.478 234.751,61.090 231.153 C 68.839 226.935,68.730 222.199,60.750 216.385 C 56.342 213.174,55.000 211.585,55.000 209.577 C 55.000 206.942,56.803 201.893,58.808 198.914 C 59.739 197.531,60.500 196.219,60.500 195.999 C 60.500 195.204,65.018 189.611,65.873 189.347 C 66.355 189.198,70.675 187.709,75.472 186.038 C 80.269 184.367,84.244 183.000,84.305 183.000 C 84.367 183.000,85.873 184.856,87.652 187.125 C 93.729 194.875,94.399 195.558,98.983 198.683 L 102.750 201.250 108.000 201.211 C 115.956 201.152,124.570 197.558,124.903 194.158 C 125.251 190.606,120.149 187.333,109.148 184.051 L 102.750 182.142 101.624 179.026 C 100.489 175.884,100.509 175.000,101.717 175.000 C 102.796 175.000,107.934 172.582,111.716 170.294 C 113.660 169.118,116.804 167.537,118.703 166.781 L 122.156 165.406 133.203 165.634 C 142.545 165.826,145.716 166.105,153.750 167.441 C 158.975 168.309,166.287 169.469,170.000 170.017 C 176.099 170.918,182.500 172.243,190.652 174.290 C 192.248 174.691,195.651 175.915,198.213 177.010 C 200.775 178.104,203.148 179.000,203.487 179.000 C 203.826 179.000,205.992 179.885,208.301 180.968 C 213.012 183.175,213.110 183.314,214.314 189.500 C 215.758 196.921,216.062 200.927,216.019 212.004 C 215.966 225.588,216.201 226.660,220.250 231.271 C 221.809 233.047,223.403 234.500,223.792 234.500 C 224.182 234.500,224.508 234.556,224.519 234.625 C 224.529 234.694,224.656 235.650,224.800 236.750 C 225.897 245.109,231.487 248.502,244.156 248.498 C 256.454 248.495,264.224 245.608,262.981 241.505 C 261.296 235.944,259.561 233.627,254.987 230.825 C 252.931 229.566,250.575 227.986,249.750 227.315 L 248.250 226.093 250.083 225.749 C 254.345 224.948,255.493 220.500,252.860 214.996 C 252.135 213.481,251.195 210.749,250.772 208.925 L 250.003 205.608 252.037 200.723 C 254.607 194.547,257.194 185.535,258.022 179.868 L 258.663 175.485 260.984 174.057 C 262.260 173.272,263.855 172.462,264.527 172.257 C 269.134 170.856,281.234 162.517,283.109 159.451 C 284.954 156.434,286.980 149.933,286.990 146.996 C 286.997 145.011,287.359 143.567,288.287 141.825 C 288.994 140.496,290.098 137.123,290.739 134.329 C 293.571 121.995,295.778 120.619,313.750 119.978 C 324.156 119.607,332.719 118.186,334.762 116.490 C 335.189 116.136,336.088 116.288,337.729 116.991 C 340.657 118.246,345.028 118.332,346.802 117.170 C 347.903 116.449,348.482 116.416,351.217 116.920 C 358.887 118.333,361.918 116.766,367.051 108.735 C 371.206 102.232,372.976 91.742,370.486 88.374 C 369.441 86.961,369.408 86.668,369.937 83.464 C 371.299 75.218,370.589 73.283,366.007 72.751 C 364.353 72.559,363.000 72.239,363.000 72.041 C 363.000 71.842,362.226 70.776,361.281 69.671 L 359.561 67.662 360.334 65.456 C 362.560 59.099,357.999 48.245,350.791 42.748 C 348.268 40.823,333.168 34.547,330.976 34.512 C 328.118 34.467,323.253 25.423,321.556 17.000 C 319.158 5.091,318.176 2.617,316.647 4.625 " stroke="none" fill="#000000" fill-rule="evenodd"></path></g></svg>